<?xml version="1.0" encoding="UTF-8"?>
<svg xmlns="http://www.w3.org/2000/svg" viewBox="0 0 500 500">
  <circle cx="250" cy="250" r="250" fill="#897391"/>
  <path d="M153.94,326.46l109.43-63.6c1.87-14,6.08-23.85,11.22-30.86l-111.3,64.53c-13.56,8-27.58,20.57-28.52,55.65l9.82-5.62C146,335.81,148.8,329.26,153.94,326.46Z" fill="#fff"/>
  <path d="M346.14,154.84c0-22.45-13.1-45.83-31.33-56.58-7-3.75-13.57-6.08-18.71-6.08a19.5,19.5,0,0,0-7.48,1.87L167,164.66c28.52,4.67,51.43,36,51.43,67.34-.46,14.49-3.27,24.31-7.94,31.79l112.69-65.46C334.91,191.31,346.14,181.49,346.14,154.84Z" fill="#fff"/>
  <path d="M149.73,182.43l20.58-12.16a36.57,36.57,0,0,0-6.55-.94C154.88,169.33,150.67,174.48,149.73,182.43Z" fill="#fff"/>
  <path d="M223.62,340.49l-.47-1.87,1.4-.47,87.45-51c-1.4-14-3.27-26.19-14-32.27-3.74-2.34-7-2.81-9.35-1.4L163.76,326a16.38,16.38,0,0,1,4.21,1.87c7,4.21,10.76,10.29,13.09,17.3,6.08,16.37-.46,46.76,21.52,59.86a15.06,15.06,0,0,0,8.41,2.8,7.87,7.87,0,0,0,4.68-1.4c7-4.21,10.75-17.77,10.75-36A173.91,173.91,0,0,0,223.62,340.49Z" fill="#fff"/>
  <path d="M228.29,341a152.78,152.78,0,0,1,2.81,29.46c0,11.69-1.4,22.45-4.68,29.93l122.05-70.61c6.55-4.21,10.76-17.77,10.76-36a144.56,144.56,0,0,0-2.81-27.12Z" fill="#fff"/>
  <path d="M360.63,262.39l-.46-3.27-43.49,25.25c-1.87-13.56-4.21-26.19-16.37-33.67a18,18,0,0,0-8.89-2.34c-1.87,0-3.74,0-5.14.94L269,259.59c3.27-20.58,13.09-30.87,22.91-37.88l33.67-19.64c12.63-7,25.25-18.24,25.25-47.23,0-24.32-13.56-49.1-33.67-60.33-7.48-4.67-15-7-21-7a21.79,21.79,0,0,0-9.82,2.34L154.41,166.53c-7,4.68-9.82,11.22-9.82,20.11v3.74l31.8-18.24,6.08,3.27C200.71,185.7,213.8,209.55,213.8,232c-.47,23.38-8.89,34.13-19.17,40.68L161,292.32c-15,8.89-30.87,23.38-30.87,64.06v4.21l13.56-7.95c0,3.74-.46,8.42-.46,13.1V370l34.13-20.11c4.68,14-.93,46.29,22.92,59.39A20.4,20.4,0,0,0,211,412.5c2.34,0,5.15-.47,7-1.87l132.8-77.16c9.36-5.61,13.1-21.51,13.1-39.75A178.3,178.3,0,0,0,360.63,262.39ZM218.47,232c0-31.33-22.91-62.67-51.43-67.34L288.62,94.05a19.5,19.5,0,0,1,7.48-1.87c5.14,0,11.69,2.33,18.71,6.08C333,109,346.14,132.39,346.14,154.84c0,26.65-11.23,36.47-22.92,43.49L210.53,263.79C215.2,256.31,218,246.49,218.47,232Zm-83.7,120.18c.94-35.08,15-47.7,28.52-55.65L274.59,232c-5.14,7-9.35,16.83-11.22,30.86l-109.43,63.6c-5.14,2.8-7.95,9.35-9.35,20.1Zm80.9,54.24a7.87,7.87,0,0,1-4.68,1.4,15.06,15.06,0,0,1-8.41-2.8c-22-13.1-15.44-43.49-21.52-59.86-2.33-7-6.07-13.09-13.09-17.3a16.38,16.38,0,0,0-4.21-1.87l124.86-72.48c2.34-1.41,5.61-.94,9.35,1.4,10.76,6.08,12.63,18.24,14,32.27l-87.45,51-1.4.47.47,1.87a173.91,173.91,0,0,1,2.8,29.92C226.42,388.65,222.68,402.21,215.67,406.42Zm132.8-76.69L226.42,400.34c3.28-7.48,4.68-18.24,4.68-29.93A152.78,152.78,0,0,0,228.29,341L356.42,266.6a144.56,144.56,0,0,1,2.81,27.12C359.23,312,355,325.52,348.47,329.73Z" fill="#453948" />
</svg>
