<?xml version="1.0" encoding="UTF-8"?>
<svg xmlns="http://www.w3.org/2000/svg" viewBox="0 0 500 500">
  <circle fill="#897391" cx="250" cy="250" r="250"/>
  <path fill="#FFF" d="M149.78,332.34l117.85-68.49c2-15.11,6.54-25.68,12.08-33.24l-119.85,69.5c-14.61,8.56-29.72,22.16-30.72,59.93L139.71,354C141.22,342.41,144.24,335.36,149.78,332.34Z"/>
  <path fill="#FFF" d="M356.76,147.52c0-24.17-14.1-49.35-33.74-60.94-7.55-4-14.6-6.54-20.14-6.54a21.09,21.09,0,0,0-8.06,2l-130.94,76c30.72,5,55.4,38.78,55.4,72.52-.5,15.61-3.52,26.19-8.56,34.25l121.37-70.51C344.68,186.8,356.76,176.22,356.76,147.52Z"/>
  <path fill="#FFF" d="M145.25,177.23l22.16-13.09a39,39,0,0,0-7-1C150.79,163.13,146.26,168.67,145.25,177.23Z"/>
  <path fill="#FFF" d="M224.82,347.45l-.5-2,1.51-.5L320,290c-1.51-15.11-3.53-28.21-15.11-34.75-4-2.52-7.55-3-10.07-1.51l-134.46,78a18,18,0,0,1,4.53,2c7.56,4.53,11.58,11.08,14.1,18.63,6.55,17.63-.5,50.36,23.17,64.46a16.19,16.19,0,0,0,9.06,3,8.49,8.49,0,0,0,5-1.51c7.55-4.53,11.58-19.13,11.58-38.77A187.73,187.73,0,0,0,224.82,347.45Z"/>
  <path fill="#FFF" d="M229.86,348a165.62,165.62,0,0,1,3,31.73c0,12.59-1.51,24.17-5,32.23l131.44-76.05c7.05-4.53,11.58-19.13,11.58-38.77a155,155,0,0,0-3-29.21Z"/>
  <path fill="#79637e" d="M372.37,263.35l-.5-3.53L325,287c-2-14.6-4.54-28.2-17.63-36.25a19.33,19.33,0,0,0-9.57-2.52c-2,0-4,0-5.54,1l-18.63,11.08c3.52-22.15,14.1-33.23,24.68-40.79l36.25-21.15c13.6-7.55,27.2-19.64,27.2-50.86,0-26.19-14.61-52.88-36.26-65-8.06-5-16.12-7.55-22.66-7.55a23.43,23.43,0,0,0-10.58,2.52l-142,82.59c-7.56,5-10.58,12.08-10.58,21.65v4L174,166.15l6.54,3.53c19.64,11.08,33.74,36.76,33.74,60.93-.5,25.18-9.56,36.76-20.64,43.81l-36.26,21.16c-16.12,9.56-33.24,25.18-33.24,69v4.53l14.61-8.56c0,4-.51,9.06-.51,14.1v4.53L175,357.52c5,15.11-1,49.85,24.68,64A21.9,21.9,0,0,0,211.22,425c2.52,0,5.54-.5,7.56-2l143-83.1c10.07-6,14.1-23.16,14.1-42.8A191.22,191.22,0,0,0,372.37,263.35ZM219.28,230.61c0-33.74-24.68-67.48-55.4-72.52l130.94-76a21.09,21.09,0,0,1,8.06-2c5.54,0,12.59,2.51,20.14,6.54,19.64,11.59,33.74,36.77,33.74,60.94,0,28.7-12.08,39.28-24.67,46.83L210.72,264.86C215.76,256.8,218.78,246.22,219.28,230.61ZM129.14,360c1-37.77,16.11-51.37,30.72-59.93l119.85-69.5c-5.54,7.56-10.07,18.13-12.08,33.24L149.78,332.34c-5.54,3-8.56,10.07-10.07,21.65Zm87.12,58.41a8.49,8.49,0,0,1-5,1.51,16.19,16.19,0,0,1-9.06-3c-23.67-14.1-16.62-46.83-23.17-64.46-2.52-7.55-6.54-14.1-14.1-18.63a18,18,0,0,0-4.53-2l134.46-78c2.52-1.51,6-1,10.07,1.51,11.58,6.54,13.6,19.64,15.11,34.75l-94.17,54.89-1.51.5.5,2a187.73,187.73,0,0,1,3,32.23C227.84,399.32,223.81,413.92,216.26,418.45Zm143-82.59L227.84,411.91c3.53-8.06,5-19.64,5-32.23a165.62,165.62,0,0,0-3-31.73l138-80.07a155,155,0,0,1,3,29.21C370.86,316.73,366.33,331.33,359.28,335.86Z"/>
</svg>
